<?xml version="1.0" encoding="UTF-8" standalone="no"?>
<svg
   width="2500"
   height="354"
   viewBox="13.953 94.037 515.209 73.017"
   version="1.1"
   id="svg24"
   sodipodi:docname="virgin-galactic.svg"
   inkscape:version="1.2.2 (732a01da63, 2022-12-09)"
   xmlns:inkscape="http://www.inkscape.org/namespaces/inkscape"
   xmlns:sodipodi="http://sodipodi.sourceforge.net/DTD/sodipodi-0.dtd"
   xmlns="http://www.w3.org/2000/svg"
   xmlns:svg="http://www.w3.org/2000/svg">
  <defs
     id="defs28" />
  <sodipodi:namedview
     id="namedview26"
     pagecolor="#ffffff"
     bordercolor="#000000"
     borderopacity="0.25"
     inkscape:showpageshadow="2"
     inkscape:pageopacity="0.0"
     inkscape:pagecheckerboard="0"
     inkscape:deskcolor="#d1d1d1"
     showgrid="false"
     inkscape:zoom="0.6816"
     inkscape:cx="1558.8322"
     inkscape:cy="315.43427"
     inkscape:window-width="2560"
     inkscape:window-height="1330"
     inkscape:window-x="-12"
     inkscape:window-y="-12"
     inkscape:window-maximized="1"
     inkscape:current-layer="svg24" />
  <path
     id="path16"
     d="M 59.000553 94.087357 C 57.675429 94.074857 56.350183 94.099846 55.000184 94.099846 C 54.801184 96.699843 54.899898 99.200054 55.100898 101.80005 L 61.401177 101.49992 C 62.000176 106.99992 61.600811 112.49983 61.800811 117.89982 C 59.399813 118.09982 57.100053 118.20004 54.700056 118.10004 C 54.601056 120.50004 54.600836 122.8999 54.499836 125.2999 C 61.499829 125.7999 68.500056 125.79981 75.40005 125.39981 C 75.30105 122.99981 75.30083 120.59995 75.19983 118.19995 C 73.100832 118.09995 70.999861 118.10013 68.999863 118.00013 C 68.599863 112.30014 68.999851 106.60006 68.800851 100.90007 C 68.899851 97.700073 66.301112 94.600065 63.000115 94.300066 C 61.650617 94.150066 60.325676 94.099857 59.000553 94.087357 z M 158.90019 94.200157 C 158.60019 96.700155 158.6 99.200054 158.901 101.80005 L 165.20087 101.80005 C 165.30187 107.20005 165.30187 112.69996 165.20087 118.19995 C 162.80087 118.19995 160.40092 118.19986 158.10092 118.29986 C 157.90092 120.69986 157.90092 123.29985 158.10092 125.79985 C 165.00092 125.69985 172.00083 125.59985 178.90083 125.79985 C 179.20082 123.29985 179.30104 120.69986 179.10105 118.29986 C 177.00005 118.19986 174.90117 118.19995 172.80117 118.19995 C 172.60017 112.39996 172.90005 106.70006 172.70005 100.90007 C 172.80005 97.700073 170.10012 94.699974 166.90012 94.399974 C 164.20012 94.199974 161.60019 94.300157 158.90019 94.200157 z M 528.69982 94.300066 C 517.80084 94.400065 506.89992 94.299974 495.99993 94.399974 C 494.29994 94.199974 492.2 95.099923 492.4 97.099921 C 492.2 105.39991 492.4001 113.70011 492.3001 122.0001 C 492.1001 123.7001 492.99884 125.79994 494.99883 125.69994 C 506.19982 125.69994 517.39993 125.80003 528.59992 125.60003 C 528.69992 124.90003 528.89986 123.50017 529.09986 122.80017 C 517.80087 122.50017 506.49985 122.69986 495.19986 122.69986 C 495.19986 114.29987 495.09986 105.80013 495.19986 97.300141 C 506.49985 97.300141 517.80096 97.599829 528.99995 97.199829 C 528.99995 96.49983 528.80082 95.000065 528.69982 94.300066 z M 477.26588 94.578037 C 475.72032 94.591001 474.16296 94.756352 472.6999 94.700102 L 472.70111 97.999903 C 474.80111 97.999903 476.80108 98.100123 478.90108 98.200123 C 478.70008 106.30011 479.00017 114.49987 478.80117 122.69986 C 476.50017 122.59986 474.20014 122.60017 472.00014 122.80017 C 472.00014 123.50017 472.19996 125.10016 472.19996 125.90016 L 489.0998 125.90016 C 489.0998 125.10016 489.20011 123.49995 489.20011 122.59995 L 482.30119 122.59995 C 482.30119 114.69996 482.40119 106.90019 482.30119 99.000197 C 482.20019 97.600198 482.30095 95.599827 480.80095 94.999828 C 479.66301 94.649828 478.46799 94.567954 477.26588 94.578037 z M 142.66385 94.594151 C 138.12568 94.576573 133.56328 94.725194 129.00015 94.600194 C 126.10116 94.700194 122.69986 94.199849 120.30086 96.299847 C 117.80087 98.499845 118.19997 102.00004 118.19997 104.90004 C 118.30097 109.90003 118.00008 114.90001 118.30108 119.90001 C 118.50008 123.2 121.50019 126.20016 125.00019 125.90016 C 133.50018 125.80016 142.10005 126.20003 150.70004 125.60003 C 155.50003 123.90003 155.00012 118.10016 154.80112 114.00017 C 155.10112 110.50017 152.69998 106.70009 148.99998 106.60009 C 143.60099 106.30009 138.2001 106.50009 132.80111 106.60009 L 132.80111 113.89986 C 137.7011 113.99986 142.50105 114.00017 147.40104 114.00017 C 147.10104 115.40017 148.10119 117.50008 146.80119 118.50008 C 139.6012 118.80008 132.50012 118.49999 125.30112 118.59999 L 125.30112 102.20009 C 133.70011 102.00009 142.30105 102.49987 150.70004 101.99987 C 150.70004 99.599871 150.70016 97.299917 150.80116 94.899919 C 148.10116 94.67492 145.38675 94.604698 142.66385 94.594151 z M 96.50008 94.625171 C 93.000084 94.625171 89.500016 94.650102 86.000019 94.700102 C 82.500023 94.500103 79.199913 97.499981 79.300913 100.99998 C 79.199913 107.99997 79.400121 115.00011 79.302121 122.0001 C 79.402121 123.3001 78.801868 125.79981 80.901866 125.39981 C 82.701864 125.29981 85.101889 126.00005 86.601887 124.70005 C 87.001887 117.30005 86.302016 109.70008 86.902016 102.20009 C 93.602009 102.40009 100.30185 102.4 106.90184 102.3 C 107.10184 103.9 107.20088 105.59986 107.30188 107.29985 C 103.10089 107.59985 98.801918 107.09989 94.700922 107.69989 C 91.999924 108.39989 91.301179 111.99986 93.101177 113.89986 C 96.101174 117.09985 99.399831 120.19994 102.49983 123.49994 C 105.49982 126.99993 110.69995 124.9999 114.69994 125.2999 C 111.80095 121.3999 107.59983 118.80015 104.69983 114.90015 C 107.79983 114.60015 111.90015 114.99994 113.60015 111.59995 C 114.70014 108.29995 114.4 104.49997 114.2 100.99998 C 114.2 97.299982 110.70014 94.400103 107.00014 94.700102 C 103.50015 94.650102 100.00008 94.625171 96.50008 94.625171 z M 189.16481 94.690031 C 186.47983 94.744569 183.76234 96.512333 183.49984 99.399831 C 183.09984 108.19982 183.59983 117.10017 183.30083 125.90016 C 185.80083 126.20016 188.30082 126.20016 190.80081 125.90016 C 190.80081 119.20016 190.50113 112.50001 190.90113 105.80002 C 197.60112 111.90001 203.70102 118.70005 210.40101 124.70005 C 213.60101 127.60004 220.401 126.00011 220.101 121.10012 C 220.201 112.30013 220.201 103.5 220.101 94.800011 C 217.701 94.700011 215.30114 94.700011 212.90114 94.800011 C 212.80114 101.6 212.99983 108.5001 212.80083 115.4001 C 205.99983 109.3001 199.9 102.30002 193.00001 96.10003 C 191.96876 95.103156 190.57123 94.661463 189.16481 94.690031 z M 18.975515 94.712591 C 17.361895 94.72929 15.730827 94.943578 14.100141 94.999828 C 16.801139 103.29982 19.30087 111.69983 21.901867 120.09982 C 22.601867 122.69982 24.201947 125.40007 27.101944 126.00007 C 30.30194 126.50007 33.700946 126.39997 37.000942 126.09997 C 40.101939 125.79997 42.301807 122.89982 43.101807 120.09982 C 45.601804 111.69983 48.201015 103.39982 50.802013 94.999828 C 48.001015 94.699828 45.101016 94.699828 42.201019 94.999828 C 39.901021 102.29982 37.500067 109.69985 35.101069 116.99984 C 34.50007 119.19984 31.700094 117.89995 30.000096 118.19995 C 27.700098 110.49996 25.399924 102.80004 22.699927 95.200048 C 21.474928 94.806298 20.230553 94.699603 18.975515 94.712591 z M 445.13845 94.750057 C 440.52601 94.757674 435.91362 94.83764 431.30112 95.100139 C 431.30112 96.300138 431.40003 97.500069 431.40103 98.700068 C 436.90102 98.800068 442.40094 98.499886 447.80093 98.899885 C 447.69993 107.99988 447.80093 117.2002 447.80093 126.30019 C 449.20093 126.30019 450.50081 126.19997 451.9008 126.09997 C 451.6998 116.99998 451.6999 107.89997 451.8009 98.799977 C 457.19989 98.699977 462.60118 98.699977 468.00017 98.799977 C 468.00017 97.499978 468.09999 96.200009 468.19999 94.800011 C 460.51312 94.925011 452.82585 94.737361 445.13845 94.750057 z M 301.5796 94.757308 C 301.38731 94.760921 301.1937 94.775011 300.99989 94.800011 C 292.3999 94.900011 283.80112 94.599828 275.20013 94.999828 L 275.20013 100.00009 C 284.10112 100.30009 293.10119 100.1 302.00018 100.1 L 302.00018 107.29985 C 293.40019 107.59985 284.69979 107.30016 275.9998 107.40016 C 273.30081 107.20017 270.60112 109.19999 270.60112 111.99998 C 270.40112 115.59998 270.19994 119.29999 270.80093 122.99999 C 271.49993 125.69999 274.6011 126.29997 277.0001 126.09997 C 287.00009 125.99997 297.00005 126.30007 307.00004 126.00007 C 307.10104 117.30007 307.20004 108.60008 307.00004 100.00009 C 307.09473 97.00009 304.46396 94.703109 301.5796 94.757308 z M 375.27542 94.759322 C 368.45028 94.749947 361.62601 94.824919 354.80102 94.899919 L 354.80102 99.399831 C 364.10001 99.49983 373.40008 99.49983 382.70007 99.399831 C 382.80107 102.49983 382.80107 105.60019 382.70007 108.70018 C 373.50008 108.80018 364.20002 108.70018 355.00003 108.70018 C 352.90003 108.50018 350.49981 109.7999 350.39981 112.09989 C 350.30081 115.89989 350.10112 119.69994 350.50012 123.49994 C 351.30112 126.39993 354.70093 126.40019 357.10093 126.30019 C 367.00092 126.20019 377.00107 126.59988 386.90106 126.19988 C 386.80106 117.09989 387.00015 107.99988 386.80115 98.899885 C 387.00015 96.399888 384.50002 94.700011 382.10102 94.800011 C 379.82577 94.775011 377.55046 94.762447 375.27542 94.759322 z M 395.50769 94.782285 C 393.02636 94.792905 390.32594 96.281449 390.7 99.000197 C 390.6 106.70019 390.6 114.3002 390.7 121.90019 C 390.5 124.30019 392.50019 126.39997 394.90018 126.09997 C 405.70017 126.09997 416.50005 126.20007 427.20004 126.00007 L 427.20004 122.0001 C 416.40005 121.8001 405.60017 122.00019 394.90018 121.90019 C 394.60018 114.3002 394.70018 106.7001 394.90018 99.100105 C 405.60017 99.200105 416.40005 99.200105 427.20004 99.100105 L 427.20004 94.899919 C 416.80105 94.799919 406.39997 94.800011 395.99998 94.800011 C 395.83748 94.787511 395.67312 94.781577 395.50769 94.782285 z M 245.79158 94.785911 C 242.52381 94.792356 239.26143 94.824919 235.99894 94.899919 C 233.09994 94.69992 230.0999 96.900182 230.0999 99.900179 C 229.6999 106.60017 230.10019 113.29992 229.99919 119.99992 C 229.80019 122.99991 231.89905 126.09988 234.99905 126.19988 C 242.69904 126.49988 250.39896 126.2001 257.99895 126.4001 C 260.79895 126.3001 264.39897 126.60006 265.89897 123.80006 C 267.19897 120.70007 266.59905 117.20017 266.69905 114.00017 C 266.99905 111.10017 265.09991 107.8998 261.99892 107.7998 C 256.49892 107.4998 250.99882 107.79989 245.59982 107.69989 L 245.59982 113.3 C 250.89982 113.4 256.30009 113.39991 261.60009 113.39991 L 261.60009 120.70008 C 252.9001 120.70008 244.09997 120.60008 235.29998 120.70008 C 235.19898 114.10009 235.29986 107.40015 235.19886 100.80016 C 244.09885 100.40016 252.99902 100.59985 261.89901 100.69985 C 262.09901 98.799851 262.09914 96.799917 262.19914 94.899919 C 256.69914 94.837419 251.23786 94.775169 245.79158 94.785911 z M 311.09992 94.800011 C 311.19991 102.9 311.19991 110.90003 311.09992 119.00003 C 311.19891 120.90002 310.99904 123.09992 312.49904 124.39992 C 314.20004 126.29992 316.79985 125.99997 319.09985 126.09997 L 346.39984 126.09997 C 346.30084 124.49998 346.20003 122.80002 346.20003 121.20003 C 336.10004 121.30003 325.99994 121.30003 315.89995 121.20003 C 315.69995 112.40004 315.79995 103.59991 315.89995 94.899919 C 314.29996 94.799919 312.69991 94.800011 311.09992 94.800011 z M 288.5496 112.73762 C 293.02434 112.72512 297.49898 112.75006 301.99898 112.80006 C 302.09998 115.50006 302.09998 118.19999 301.99898 120.79999 C 292.99898 120.79999 284.09991 120.89999 275.19892 120.79999 C 275.09992 118.19999 275.09982 115.49996 275.09982 112.89997 C 279.59982 112.79997 284.07485 112.75012 288.5496 112.73762 z M 362.04278 113.2718 C 368.90072 113.22493 375.80007 113.375 382.70007 113.3 C 382.80107 116.1 382.80118 118.89997 382.80118 121.69997 C 373.30119 121.49997 363.80098 122.09984 354.40098 121.39984 C 354.80098 118.79985 353.69985 115.59991 355.19985 113.39991 C 357.4751 113.32491 359.75679 113.28743 362.04278 113.2718 z "
     style="fill:#4d4d4d" />
  <path
     id="path20"
     d="M 503.20019 145.79887 C 502.70019 145.99987 501.60119 146.29893 501.00019 146.39993 C 500.50019 151.99993 500.80106 157.59887 500.70006 163.19987 C 494.60007 158.40087 490.19985 151.69996 484.19985 146.79997 C 482.79985 145.59997 479.49981 145.80008 479.39981 148.00008 C 478.89981 154.20007 479.3008 160.5 479.2008 166.79899 C 479.9998 166.79899 481.40097 166.89881 482.10097 166.99881 C 482.60097 160.99881 482.20019 155.09907 482.30119 149.09907 C 487.50018 154.40007 492.60111 159.90006 497.80111 165.20005 C 499.00011 166.70005 500.99996 166.79911 502.80096 166.90011 C 504.09996 159.99912 503.40019 152.79886 503.20019 145.79887 z M 171 145.99989 C 170.4 148.09989 172.10006 148.8001 173.80106 149.3001 L 173.80106 163.69981 C 173.10106 163.79881 171.60089 163.99905 170.90089 164.09904 L 170.90089 166.90011 C 173.90089 166.80011 176.80081 166.79989 179.80081 166.69989 L 179.80081 164.20016 C 179.00081 164.10016 177.60104 163.90113 176.90104 163.80013 C 176.20004 158.09913 177.40119 152.30005 176.30119 146.70006 C 174.70019 145.90006 172.69999 146.09989 171 145.99989 z M 30.473453 146.07201 C 26.04377 146.02513 21.599809 146.1748 17.099814 146.0998 L 17.101022 148.80015 C 23.000016 148.90115 28.900947 148.70087 34.800941 148.90087 L 34.800941 153.90113 C 28.699947 154.50013 22.400942 153.59996 16.300948 154.29995 C 13.499951 155.19995 14.19983 158.69987 13.99983 160.99987 C 13.99983 163.09887 13.999908 166.69989 16.999905 166.69989 C 23.999898 166.99989 30.899814 166.70011 37.799808 166.90011 C 37.799808 161.20011 37.998807 155.59895 37.799808 149.89995 C 37.899807 148.19995 36.900042 146.20011 34.900044 146.20011 C 33.425045 146.12511 31.950014 146.08763 30.473453 146.07201 z M 475.65204 146.09013 C 475.46708 146.05771 475.24981 146.08761 474.99981 146.20011 C 469.99982 146.20011 464.89993 146.09911 459.89993 146.20011 C 457.89993 146.00011 456.29991 147.99995 456.39991 149.89995 C 456.30091 154.59995 456.30082 159.29984 456.49982 163.90084 C 456.49982 165.79984 458.30084 166.9012 459.99984 166.8002 C 465.40083 166.9012 470.80082 166.70091 476.10082 166.90091 C 476.10082 166.20092 476.20113 164.79985 476.20113 164.09985 L 459.60101 164.09985 C 459.50001 162.00085 459.39989 159.80087 459.49989 157.70087 C 462.99989 157.59987 466.49996 157.59987 469.99995 157.70087 C 470.10095 157.00087 470.19989 155.60002 470.30089 154.90102 C 466.69989 154.80102 462.99988 154.8012 459.30088 154.7012 C 459.40088 152.8002 459.30088 150.99988 459.30088 149.09988 C 464.49988 148.49988 469.69982 149.00015 474.99981 148.80015 C 476.66231 149.58765 476.94676 146.31709 475.65204 146.09013 z M 306.99964 146.09336 C 302.40296 146.06699 297.76267 146.38761 293.20018 146.20011 C 293.10018 153.10011 293.10018 160.00021 293.20018 166.8002 C 293.90018 166.8002 295.30103 166.90091 296.00003 166.90091 C 296.10003 163.99992 296.19985 161.09992 296.19985 158.29992 C 302.39985 158.09992 308.70007 158.60019 314.90006 158.00019 C 315.30106 157.7992 315.90008 157.19999 316.20008 156.89999 C 316.60008 153.599 317.40019 149.59906 315.20019 146.70006 C 312.50019 146.25006 309.75764 146.10918 306.99964 146.09336 z M 89.400937 146.099 C 82.300944 146.4 75.300899 145.89993 68.300906 146.39993 C 66.300908 147.89993 67.400198 150.90013 67.101198 152.99913 C 67.501198 157.40013 66.302054 162.09905 67.701052 166.29905 C 74.802045 167.50005 82.101841 166.40011 89.301834 166.90011 C 89.301834 166.20011 89.302146 164.59903 89.402145 163.90003 L 69.801951 163.90003 C 69.601951 158.90004 69.700951 153.90006 69.801951 148.90006 C 76.200944 148.69906 82.701126 148.89994 89.20112 148.79894 C 89.20112 148.09894 89.300937 146.799 89.400937 146.099 z M 391.10084 146.0998 C 385.39985 146.4008 379.69997 146.00002 373.99997 146.30002 C 371.99997 146.10002 370.79999 148.19986 370.89999 149.99986 C 370.69999 154.29986 370.70009 158.69986 370.80209 163.00086 C 370.80209 164.80086 372.1019 166.9011 374.10189 166.7011 C 379.70089 166.8011 385.40094 166.8011 391.00093 166.7011 C 391.10093 166.0001 391.20115 164.70085 391.20115 164.09985 C 385.40216 164.20085 379.60216 164.20085 373.80217 164.09985 C 373.70117 161.90085 373.70105 159.80087 373.70105 157.70087 C 377.70105 157.49987 381.70095 157.60016 385.70095 157.60016 C 385.70095 157.00016 385.80207 155.70103 385.80207 155.10003 C 381.80207 154.60003 377.80216 154.7999 373.80217 154.7999 C 373.70117 152.9009 373.70117 150.90087 373.80217 148.90087 L 391.20115 148.90087 C 391.20115 148.20087 391.10084 146.7998 391.10084 146.0998 z M 406.80098 146.0998 C 406.80098 146.7998 406.69986 148.19997 406.69986 148.99997 C 412.69986 148.90097 418.60001 148.70088 424.6 149.09988 C 424.6 150.69988 424.59991 152.30001 424.69991 153.80001 C 418.49992 154.50001 412.20009 153.69996 406.0001 154.29995 C 403.5001 154.79995 403.60097 157.99998 403.49997 159.99998 C 403.59997 162.29997 403.19992 165.99998 406.19992 166.59998 C 413.19991 167.09998 420.20014 166.7002 427.10013 166.8002 C 427.30113 161.20021 427.40004 155.59985 427.20004 149.99986 C 427.40004 147.99986 426.00014 146.20002 424.00015 146.30002 C 418.30115 146.00002 412.49997 146.4008 406.80098 146.0998 z M 213.19522 146.14815 C 210.8902 146.15125 208.58863 146.21243 206.30113 146.39993 C 202.80114 148.09993 204.59992 152.90011 204.09992 155.9001 C 204.69992 159.2991 202.80107 163.79917 205.70007 166.40016 C 211.10107 167.19916 216.60107 166.49899 222.00006 166.79899 C 223.90006 167.09899 225.09988 165.99904 224.39988 164.09904 C 218.59989 164.09904 212.70018 164.19914 206.90018 163.99914 C 206.80018 161.79814 206.9 159.59813 207.1 157.39913 C 211.1 157.49813 215.00008 157.79801 218.90008 157.29802 C 219.00008 156.59802 219.09981 155.29807 219.19981 154.59807 C 215.30081 154.39907 211.40003 154.79806 207.50004 154.39906 C 206.20004 153.09806 207.10108 150.69885 206.80108 148.89885 C 212.80107 148.69885 218.70002 148.89904 224.70001 148.69904 L 224.70001 146.29881 C 220.88814 146.29881 217.03693 146.14297 213.19522 146.14815 z M 52.300237 146.15016 C 48.700116 146.15016 45.100044 146.19993 41.500048 146.39993 C 40.801048 153.09992 40.700049 159.89999 41.500048 166.59998 C 48.80104 167.09998 55.999863 166.59991 63.301855 166.90091 L 63.301855 164.09985 C 56.900862 164.09985 50.500977 164.19994 44.000983 163.99994 C 43.900983 158.99995 43.900983 153.99996 44.000983 148.99997 C 50.500977 148.79997 57.000964 148.89997 63.400958 148.99997 C 63.400958 148.29997 63.20083 146.90011 63.10083 146.20011 C 59.500333 146.20011 55.900359 146.15016 52.300237 146.15016 z M 105.25053 146.15016 C 101.14995 146.13747 97.025147 146.32511 92.900152 146.20011 C 92.700152 153.10011 92.699866 160.00012 93.000866 166.90011 C 93.700865 166.80011 95.000813 166.69989 95.700812 166.69989 C 95.600813 160.69989 95.600813 154.79906 95.700812 148.90006 C 101.00081 148.79906 106.40108 148.59907 111.70108 149.09907 C 111.70108 151.29907 111.60108 153.5991 111.70108 155.9001 C 108.40108 156.0991 105.20118 156.09911 101.90118 156.09911 C 100.60118 156.09911 99.10085 156.09882 98.300851 157.29882 C 98.100851 159.39982 100.40087 160.19991 101.80087 161.3999 C 105.70087 163.5989 109.1009 167.79899 114.1009 166.79899 C 110.3009 163.69999 105.901 161.39983 102.101 158.39983 C 105.4 158.29983 108.7 158.59901 112 158.20001 C 114.5 157.90001 114.29982 154.89993 114.39982 152.99994 C 114.19982 150.79994 114.79985 147.79984 112.59985 146.49984 C 110.16235 146.23734 107.71088 146.15778 105.25053 146.15016 z M 330.49989 146.15016 C 327.69989 146.15016 324.89992 146.20002 322.09992 146.30002 C 321.99992 146.90002 321.9001 148.19994 321.9001 148.79894 C 327.7001 149.09894 333.49981 148.69916 339.3998 148.99916 L 339.3998 153.99902 C 333.30081 154.29902 327.19993 153.79915 321.19994 154.29915 C 318.29994 155.09915 318.6999 158.69906 318.5999 160.99906 C 318.6989 162.99906 318.69885 166.09918 321.29985 166.59917 C 328.19984 167.09917 335.20016 166.59911 342.10015 166.90011 C 342.30115 161.20011 342.30106 155.59985 342.20006 149.99986 C 342.40006 148.09986 340.89986 146.20002 338.89986 146.30002 C 336.09986 146.20002 333.29989 146.15016 330.49989 146.15016 z M 154.20006 146.16265 C 150.10006 146.17515 146.00003 146.25011 141.90003 146.20011 C 140.40004 148.10011 142.60013 148.60019 144.00013 149.20019 C 144.20013 153.99918 144.20013 158.7991 144.00013 163.5991 C 143.30013 163.7991 142.00009 164.29908 141.40009 164.49908 L 141.40009 166.59917 C 148.60108 166.99917 155.80107 166.69899 163.00007 166.79899 C 164.40006 166.69999 166.8009 166.99992 166.6999 164.89992 C 166.8999 158.79993 167.00008 152.59983 166.50009 146.49984 C 162.40009 146.19984 158.30006 146.15015 154.20006 146.16265 z M 124.43982 146.17191 C 122.95543 146.18754 121.47412 146.22502 119.99912 146.30002 C 118.20013 146.40002 117.70011 148.59986 117.60011 149.99986 C 117.50011 154.29986 117.50011 158.70006 117.60011 163.00005 C 117.70011 164.50005 118.19984 166.70098 120.09984 166.59998 C 125.99883 167.09998 131.90017 166.7002 137.80016 166.8002 C 137.90016 166.1002 137.90007 164.79985 137.90007 164.09985 C 132.10007 163.59985 126.19905 164.20102 120.30006 163.70102 C 120.40006 161.80002 120.40006 160.0001 120.30006 158.1001 C 124.30005 157.1001 128.59996 158.50093 132.29996 157.20093 C 132.39996 156.60093 132.39986 155.40211 132.39986 154.80111 C 128.39987 154.70111 124.39996 154.7012 120.39997 154.7012 C 120.39997 152.9012 120.40006 150.99988 120.30006 149.09988 C 126.10005 148.49988 132.00007 149.00015 137.90007 148.80015 C 137.90007 148.20015 137.80016 146.90011 137.80016 146.20011 C 133.37441 146.27511 128.89298 146.12504 124.43982 146.17191 z M 273.95047 146.17191 C 272.30041 146.18754 270.65041 146.22502 269.00016 146.30002 C 266.50017 146.20002 265.90018 149.10016 265.90018 151.00015 C 265.70018 153.50015 266.00008 157.19995 269.10007 157.59895 C 275.20007 158.29895 281.40007 157.3999 287.60007 158.09889 L 287.60007 163.79892 C 280.90007 164.49892 274.00019 163.89895 267.2002 164.19895 C 267.3012 164.79895 267.30091 166.09899 267.30091 166.79899 C 274.09991 166.69999 280.89998 166.99917 287.69997 166.59917 C 290.19997 166.19918 290.19982 163.09906 290.30082 160.99906 C 290.49982 158.69906 290.10092 155.09891 287.10093 154.99891 C 281.10093 154.49891 275.10118 154.99909 269.20119 154.79909 C 269.10119 152.9001 269.10088 150.99907 269.10088 149.09907 C 275.70087 148.70007 282.3009 149.00006 288.90089 148.90006 C 288.80089 148.20006 288.80098 146.90011 288.80098 146.20011 C 283.85024 146.27511 278.90065 146.12504 273.95047 146.17191 z M 242.94983 146.17353 C 237.69983 146.14418 232.45013 146.30002 227.20014 146.30002 C 227.30114 146.80002 227.50006 147.79981 227.49906 148.2998 C 228.10006 148.4998 229.39919 148.90088 229.99919 149.09988 C 230.10019 153.89987 229.99919 158.7 229.99919 163.5 C 227.90019 163.599 227.30018 165.00011 227.60018 166.90011 C 235.90017 166.50011 244.20005 167.29916 252.40004 166.40016 C 252.90004 159.80017 252.90004 153.09983 252.40004 146.49984 C 249.25005 146.27522 246.09983 146.19113 242.94983 146.17353 z M 354.61893 146.17675 C 351.93891 146.17206 349.26256 146.23734 346.60006 146.49984 C 345.30107 147.99984 345.69996 150.10005 345.59896 152.00004 C 345.79896 156.29904 345.39919 160.59893 345.79918 164.89992 C 345.79918 166.69892 347.69787 166.79899 348.99787 166.79899 C 355.39886 166.89999 361.69893 166.69899 368.09892 166.79899 L 368.09892 164.09904 C 361.59893 164.20004 355.09903 164.09916 348.59904 164.20016 C 348.29904 159.20017 348.59882 154.20018 348.39882 149.20019 C 354.99881 148.59919 361.59884 149.00006 368.19883 148.90006 C 368.09983 148.20006 368.10001 146.80011 367.99901 146.20011 C 363.56214 146.38761 359.08563 146.18456 354.61893 146.17675 z M 200.80093 146.20011 C 193.99994 146.30011 187.10115 146.10002 180.30116 146.30002 C 180.30116 146.90002 180.19984 148.09984 180.20084 148.69984 C 183.30084 148.79984 186.30089 148.90115 189.40089 148.80015 C 189.50089 154.80015 189.40089 160.79989 189.40089 166.69989 C 190.10089 166.79889 191.40083 166.90011 192.10083 166.90011 C 192.40083 160.90011 192.20114 154.89996 192.20114 148.99997 C 195.10114 148.79997 198.00084 148.70015 200.90084 148.80015 C 200.90084 148.09915 200.80093 146.90011 200.80093 146.20011 z M 450.80101 146.20011 C 445.20001 146.30011 439.60085 146.10002 433.99986 146.30002 C 432.29986 146.10002 430.39993 147.29988 430.39993 149.09988 C 430.09993 154.99987 430.40011 160.90021 430.20011 166.8002 C 437.10011 166.8002 444.00011 166.99989 450.90011 166.69989 C 453.80011 166.59989 454.00018 163.19986 453.90018 160.99987 C 453.69918 158.79987 454.49909 155.29995 451.80009 154.29995 C 447.10009 153.59996 442.4 153.99983 437.80001 153.99983 C 437.80001 154.69983 437.89992 156.09899 437.89992 156.89999 C 442.19991 156.69999 446.60011 156.69999 450.90011 156.89999 L 450.90011 163.99994 C 445.00011 164.19994 439.2 164.30012 433.40001 163.80013 C 433.50001 159.00013 433.50001 154.09918 433.40001 149.20019 C 439.2 148.59919 445.10102 149.00006 451.00002 148.90006 C 450.90102 148.20006 450.90101 146.90011 450.80101 146.20011 z M 506.19987 146.30002 L 506.19987 148.80015 C 509.39986 148.80015 512.69986 148.90087 515.89985 148.90087 C 515.99885 154.90086 515.70007 160.90092 516.10007 166.90091 C 516.70007 166.90091 518.00011 166.8002 518.70011 166.8002 C 518.70011 160.80021 518.60002 154.79986 518.80002 148.90087 C 521.80002 148.79987 524.80016 148.80015 527.90015 148.80015 C 527.80115 148.20015 527.80093 146.90102 527.69993 146.30002 C 520.59994 146.30002 513.39986 146.40102 506.19987 146.30002 z M 155.45093 148.64989 C 158.27593 148.64989 161.10055 148.70015 163.90005 148.80015 C 163.80005 153.80015 163.90005 158.79984 163.90005 163.90084 L 147.10011 163.90084 C 146.80111 158.79984 146.8998 153.80015 146.9998 148.80015 C 149.8003 148.70015 152.62593 148.64989 155.45093 148.64989 z M 241.40004 148.66278 C 244.22504 148.6504 247.04992 148.70037 249.89992 148.90087 C 249.79992 153.90086 249.80001 158.80013 249.80001 163.80013 C 244.20001 163.90013 238.60006 163.90003 233.00007 163.90003 C 232.80107 158.80004 232.90016 153.80015 232.90016 148.80015 C 235.75016 148.75015 238.57504 148.67515 241.40004 148.66278 z M 304.99905 148.8626 C 307.97405 148.8501 310.94968 148.89997 313.90017 148.99997 C 313.90017 151.19997 313.79986 153.39988 313.79986 155.69988 C 307.89987 155.59888 302.10004 155.59888 296.19905 155.69988 C 296.20005 153.49988 296.19994 151.29988 296.09994 149.09988 C 299.04944 148.94988 302.02405 148.8751 304.99905 148.8626 z M 26.037596 156.72515 C 28.975218 156.72515 31.900444 156.79999 34.800941 156.89999 L 34.800941 163.99994 C 28.999947 164.19994 23.101119 164.19994 17.200125 163.99994 L 17.200125 156.9999 C 20.150122 156.7999 23.099974 156.72515 26.037596 156.72515 z M 330.54984 156.72515 C 333.49984 156.72515 336.44981 156.75008 339.3998 156.80008 L 339.3998 164.09985 C 333.49981 164.20085 327.59988 164.09985 321.69988 164.09985 C 321.59988 161.69985 321.59988 159.20008 321.69988 156.80008 C 324.64988 156.75008 327.59985 156.72515 330.54984 156.72515 z M 415.31334 156.82466 C 418.32584 156.82478 421.35099 156.89999 424.40099 156.89999 C 424.40099 159.29899 424.40108 161.70005 424.30108 164.09904 C 418.30109 163.99905 412.30103 164.40003 406.30103 163.90003 C 406.40003 161.60004 406.30103 159.40012 406.30103 157.20012 C 409.30103 156.89962 412.30085 156.82453 415.31334 156.82466 z "
     style="fill:#4d4d4d" />
</svg>
